<svg width="739" height="382" viewBox="0 0 739 382" fill="none" xmlns="http://www.w3.org/2000/svg">
    <path
        d="M77.1848 308.69C72.105 299.636 63.0105 293.614 52.645 293.614C42.2796 293.614 33.185 299.636 28.1053 308.69H77.1848ZM24.337 333.27C27.2844 347.609 38.8392 358.262 52.645 358.262C62.9701 358.262 72.0614 352.28 77.1848 343.224H102.708C95.8263 365.636 75.9954 381.818 52.645 381.818C23.6001 381.818 0 356.787 0 325.937C0 295.129 23.6001 270.058 52.645 270.058C75.9954 270.058 95.8675 286.279 102.708 308.69C104.388 314.098 105.29 319.916 105.29 325.937C105.29 328.436 105.124 330.855 104.796 333.27H24.337Z"
        fill="#50aa3e" />
    <path
        d="M247.795 307.278V381.348H223.006V307.278C223.006 299.451 216.639 293.084 208.814 293.084C200.991 293.084 194.623 299.451 194.623 307.278V381.348H169.833V307.278C169.833 299.451 163.469 293.084 155.642 293.084C147.817 293.084 141.453 299.451 141.453 307.278V381.348H116.661V307.278C116.661 285.779 134.148 268.297 155.642 268.297C165.923 268.297 175.255 272.322 182.226 278.849C189.195 272.322 198.533 268.297 208.812 268.297C230.308 268.297 247.793 285.779 247.795 307.278Z"
        fill="#50aa3e" />
    <path
        d="M304.76 356.913V381.492H294.992C277.519 381.492 263.307 367.282 263.307 349.808V244.876H287.888V270.073H304.038V294.654H287.888V349.808C287.888 353.725 291.076 356.913 294.992 356.913H304.76Z"
        fill="#50aa3e" />
    <path
        d="M388.838 308.69C383.758 299.636 374.666 293.614 364.298 293.614C353.933 293.614 344.842 299.636 339.759 308.69H388.838ZM335.99 333.27C338.941 347.609 350.493 358.262 364.298 358.262C374.624 358.262 383.718 352.28 388.838 343.224H414.365C407.48 365.636 387.651 381.818 364.298 381.818C335.254 381.818 311.657 356.787 311.657 325.937C311.657 295.129 335.254 270.058 364.298 270.058C387.651 270.058 407.521 286.279 414.365 308.69C416.044 314.098 416.944 319.916 416.944 325.937C416.944 328.436 416.781 330.855 416.453 333.27H335.99Z"
        fill="#50aa3e" />
    <path
        d="M470.022 356.913V381.492H460.254C442.781 381.492 428.569 367.282 428.569 349.808V244.876H453.152V270.28H469.3V294.862H453.152V349.808C453.152 353.725 456.338 356.913 460.254 356.913H470.022Z"
        fill="#50aa3e" />
    <path
        d="M589.979 330.086V381.154H565.396V357.528V339.253C565.396 332.507 565.864 324.068 564.641 317.411C564.2 315.013 563.833 314.125 562.921 311.864C560.369 305.539 555.826 299.947 549.886 296.596C543.878 293.206 536.55 292.233 529.866 293.938C523.182 295.643 517.215 300.006 513.564 305.86C508.194 314.472 508.069 325.234 508.11 335.384C508.172 350.705 508.214 366.028 508.214 381.348H483.634V324.797C483.634 324.022 483.715 323.266 483.744 322.496V244.874H508.104V279.274C516.392 273.608 526.233 270.277 536.807 270.277C566.127 270.277 589.979 293.627 589.979 330.086Z"
        fill="#50aa3e" />
    <path d="M714.643 244.87H739.003V381.348H714.643V244.87Z" fill="#50aa3e" />
    <path
        d="M648.885 357.416C632.987 357.416 620.055 343.238 620.055 325.812C620.055 308.386 632.987 294.208 648.885 294.208C663.454 294.208 675.502 306.126 677.419 321.528V330.096C675.502 345.498 663.454 357.416 648.885 357.416ZM677.419 273.101V279.366C669.19 273.744 659.404 270.443 648.885 270.443C619.884 270.443 596.29 295.281 596.29 325.812C596.29 356.342 619.884 381.181 648.885 381.181C659.404 381.181 669.19 377.88 677.419 372.258V376.531H701.778V273.101H677.419Z"
        fill="#50aa3e" />
    <path
        d="M437.722 8.14132C448.381 15.1357 454.803 26.6815 453.469 41.7203C452.095 57.2166 443.688 68.0264 429.025 73.1852C414.887 78.1594 401.552 75.8648 391.116 64.8037C379.222 52.1963 365.602 43.1578 348.111 48.0463C338.612 50.7011 329.644 57.2916 321.929 63.8607C307.26 76.3511 286.713 77.7119 272.303 65.618C257.587 53.2678 254.311 32.1807 264.703 16.6993C275.188 1.08015 296.157 -4.50316 312.655 4.48257C317.296 7.01048 321.299 10.9453 325.108 14.7252C344.13 33.6033 369.619 33.5704 388.587 14.4508C402.637 0.288902 420.135 -2.48792 437.722 8.14132Z"
        fill="#50aa3e" />
    <path
        d="M486.256 96.8232C496.915 103.818 503.337 115.363 502.003 130.402C500.629 145.899 492.222 156.708 477.558 161.867C463.42 166.841 450.086 164.547 439.651 153.486C427.756 140.878 414.136 131.84 396.646 136.728C387.146 139.383 378.177 145.973 370.462 152.543C355.794 165.033 335.246 166.393 320.837 154.3C306.121 141.95 302.844 120.863 313.236 105.381C323.721 89.7613 344.69 84.1788 361.188 93.1645C365.829 95.6924 369.833 99.6264 373.641 103.407C392.664 122.285 418.152 122.251 437.121 103.133C451.171 88.9708 468.669 86.194 486.256 96.8232Z"
        fill="#50aa3e" />
    <path
        d="M536.008 97.5849C517.755 111.873 515.56 139.878 535.242 157.296C544.458 165.453 558.688 165.926 570.199 161.875C584.862 156.715 593.269 145.906 594.643 130.41C595.977 115.37 589.555 103.826 578.897 96.8299C565.772 88.2159 549.176 89.9122 536.008 97.5849Z"
        fill="#50aa3e" />
    <path
        d="M213.345 97.5849C195.091 111.873 192.897 139.878 212.579 157.296C221.795 165.453 236.025 165.926 247.536 161.875C262.199 156.715 270.606 145.906 271.98 130.41C273.314 115.37 266.892 103.826 256.233 96.8299C243.108 88.2159 226.513 89.9122 213.345 97.5849Z"
        fill="#50aa3e" />
</svg>