<svg width="61" height="60" viewBox="0 0 61 60" fill="none" xmlns="http://www.w3.org/2000/svg">
<rect x="0.333344" width="60" height="60" rx="8" fill="#E5F7E1"/>
<g clip-path="url(#clip0_6426_77869)">
<path d="M45.3636 30.0786C45.0957 30.0786 44.8788 30.2955 44.8788 30.5635V31.3551C44.8788 31.5805 44.7178 31.7727 44.4962 31.8116L43.0947 32.0582C42.5497 32.1543 42.1037 32.5705 41.9579 33.1189C41.6861 34.1354 41.2822 35.1079 40.7571 36.0085C40.4702 36.5014 40.4905 37.1137 40.8092 37.5682L41.6278 38.7363C41.7576 38.9205 41.7353 39.1705 41.5762 39.3301L39.6634 41.2424C39.5043 41.402 39.2547 41.4247 39.0696 41.2945L37.9015 40.4763C37.4465 40.1572 36.8343 40.1364 36.3419 40.4238C35.4413 40.9489 34.4687 41.3527 33.4522 41.6241C32.9038 41.7704 32.4877 42.2164 32.3911 42.7619L32.1454 44.1624C32.1061 44.3845 31.9138 44.5455 31.6884 44.5455H28.9782C28.7529 44.5455 28.5611 44.3845 28.5218 44.1624L28.2751 42.7614C28.179 42.2165 27.7623 41.77 27.2145 41.6246C26.2003 41.3538 25.2268 40.9509 24.322 40.4267C23.8305 40.1416 23.2211 40.163 22.7685 40.4792L21.5976 41.2965C21.4143 41.4247 21.1648 41.4039 21.0047 41.2439L19.0909 39.3301C18.9313 39.1705 18.9091 38.9205 19.0383 38.7363L19.8579 37.5677C20.1761 37.1132 20.1965 36.501 19.9095 36.0085C19.3844 35.108 18.9806 34.1354 18.7092 33.1189C18.5629 32.5705 18.1169 32.1543 17.5714 32.0578L16.1714 31.812C15.9493 31.7728 15.7879 31.5805 15.7879 31.3551V28.6449C15.7879 28.4196 15.9488 28.2277 16.1714 28.1885L17.572 27.9418C18.1169 27.8457 18.563 27.4295 18.7088 26.8812C18.9806 25.8646 19.3845 24.8921 19.9096 23.9915C20.1965 23.4991 20.1761 22.8869 19.8575 22.4318L19.0388 21.2637C18.9091 21.0795 18.9313 20.83 19.0904 20.6705L21.0052 18.7562C21.1638 18.5966 21.4133 18.5749 21.5975 18.7041L22.7689 19.5213C23.2282 19.8423 23.8238 19.8627 24.3214 19.5734C25.2254 19.0502 26.1988 18.6472 27.214 18.376C27.7623 18.2301 28.1789 17.7836 28.2751 17.2387L28.5222 15.8376C28.5611 15.6155 28.7528 15.4546 28.9782 15.4546H31.6884C31.9138 15.4546 32.106 15.6155 32.1449 15.8372L32.3916 17.2387C32.4877 17.7836 32.9038 18.2296 33.4522 18.3755C34.4687 18.6472 35.4413 19.0512 36.3419 19.5763C36.8343 19.8632 37.4465 19.8428 37.9015 19.5242L39.0696 18.7055C39.2547 18.5758 39.5043 18.598 39.6634 18.7571L41.5762 20.6705C41.7353 20.83 41.7576 21.0796 41.6278 21.2637L40.8096 22.4318C40.4905 22.8864 40.4702 23.4986 40.7571 23.9915C41.2822 24.892 41.6861 25.8646 41.9574 26.8812C42.1037 27.4295 42.5497 27.8457 43.0947 27.9418L44.4962 28.189C44.5951 28.206 44.6837 28.2538 44.7523 28.3268C44.9365 28.5214 45.2429 28.5299 45.438 28.3466C45.6326 28.1624 45.6415 27.8556 45.4578 27.661C45.2443 27.4352 44.9701 27.2874 44.6643 27.2339L43.2633 26.9872C43.0862 26.9555 42.9446 26.8196 42.8944 26.6311C42.6009 25.5308 42.1634 24.4787 41.5952 23.5029C41.4962 23.3338 41.4995 23.1368 41.6037 22.9887L42.4219 21.8206C42.822 21.2496 42.7548 20.4778 42.2619 19.9849L40.349 18.071C39.8551 17.5791 39.0838 17.5114 38.5128 17.9115L37.3452 18.7301C37.197 18.8339 36.9991 18.8372 36.8305 18.7382C35.8547 18.17 34.8026 17.7325 33.7022 17.4385C33.5138 17.3888 33.3779 17.2472 33.3467 17.0706L33.1 15.6691C32.9787 14.9829 32.3854 14.4849 31.6884 14.4849H28.9782C28.2808 14.4849 27.6875 14.9834 27.5672 15.6695L27.3205 17.0701C27.2888 17.2471 27.1529 17.3887 26.9645 17.4389C25.866 17.7325 24.8134 18.1681 23.8352 18.7344C23.6667 18.8319 23.4702 18.8286 23.3234 18.7259L22.1525 17.9091C21.5829 17.5109 20.8116 17.5777 20.3191 18.0706L18.4048 19.9848C17.9119 20.4777 17.8447 21.2495 18.2448 21.8205L19.0635 22.9881C19.1672 23.1364 19.1705 23.3338 19.0715 23.5028C18.5033 24.4787 18.0658 25.5307 17.7718 26.6311C17.7221 26.8196 17.5805 26.9554 17.4034 26.9872L16.0033 27.2334C15.3167 27.3542 14.8182 27.9475 14.8182 28.6449V31.3551C14.8182 32.0521 15.3163 32.6458 16.0033 32.767L17.4034 33.0128C17.5805 33.0445 17.722 33.1804 17.7722 33.3688C18.0658 34.4692 18.5033 35.5213 19.0715 36.4971C19.1704 36.6661 19.1671 36.8636 19.0639 37.0113L18.2447 38.1794C17.8446 38.75 17.9119 39.5222 18.4048 40.0156L20.3186 41.9294C20.811 42.4218 21.5819 42.4896 22.1524 42.0918L23.3233 41.2746C23.4716 41.1705 23.6666 41.1681 23.8356 41.2656C24.8148 41.8328 25.8678 42.2685 26.9649 42.5616C27.1529 42.6113 27.2888 42.7528 27.3205 42.93L27.5667 44.3305C27.6875 45.0171 28.2808 45.5152 28.9782 45.5152H31.6884C32.3854 45.5152 32.9787 45.0171 33.1004 44.3305L33.3461 42.9299C33.3778 42.7528 33.5137 42.6113 33.7022 42.5611C34.8025 42.2675 35.8546 41.83 36.8304 41.2618C36.9999 41.1634 37.1974 41.1671 37.3446 41.2704L38.5127 42.0885C39.0833 42.4886 39.856 42.4224 40.3489 41.9285L42.2623 40.0156C42.7547 39.5222 42.8219 38.75 42.4223 38.1795L41.6031 37.0114C41.4994 36.8631 41.4961 36.6662 41.5951 36.4972C42.1633 35.5213 42.6008 34.4693 42.8948 33.3689C42.9445 33.1804 43.0861 33.0446 43.2627 33.0133L44.6642 32.7666C45.3504 32.6454 45.8485 32.0521 45.8485 31.3551V30.5635C45.8485 30.2955 45.6316 30.0786 45.3636 30.0786Z" fill="#0F270C"/>
<path d="M30.3281 21.7378C25.7737 21.7378 22.0682 25.4461 22.0682 30.0039C22.0682 31.7969 22.634 33.5024 23.7036 34.9357C25.2566 37.0195 27.7329 38.2639 30.3281 38.2639C32.9271 38.2639 35.4058 37.0195 36.9579 34.9372C38.0322 33.5068 38.6004 31.8008 38.6004 30.0039C38.6004 25.4461 34.8897 21.7378 30.3281 21.7378ZM30.3281 37.2941C28.1308 37.2941 26.1142 36.3275 24.7238 34.6451C26.0974 32.9785 28.1595 31.9854 30.3281 31.9854C32.5003 31.9854 34.5644 32.9784 35.9383 34.6448C34.56 36.3046 32.4956 37.2941 30.3281 37.2941ZM36.536 33.8368C34.9807 32.0611 32.7082 31.0157 30.3281 31.0157C27.9522 31.0157 25.6826 32.0605 24.1277 33.8353C23.4138 32.6868 23.0379 31.3746 23.0379 30.0039C23.0379 25.9807 26.3083 22.7075 30.3281 22.7075C34.3547 22.7075 37.6307 25.9807 37.6307 30.0039C37.6307 31.3774 37.2533 32.6894 36.536 33.8368Z" fill="#0F270C"/>
<path d="M30.3324 24.009C28.7253 24.009 27.4176 25.3173 27.4176 26.9257C27.4176 27.5583 27.6174 28.1601 27.9948 28.6658C28.5426 29.4011 29.4166 29.84 30.3324 29.84C31.2495 29.84 32.124 29.4011 32.6709 28.6672C33.0501 28.162 33.2509 27.5597 33.2509 26.9257C33.251 25.3173 31.9418 24.009 30.3324 24.009ZM31.8944 28.0862C31.5284 28.5772 30.9446 28.8703 30.3324 28.8703C29.7121 28.8703 29.1435 28.5843 28.7722 28.0857C28.5203 27.7486 28.3873 27.3475 28.3873 26.9256C28.3873 25.8522 29.2599 24.9787 30.3324 24.9787C31.4072 24.9787 32.2812 25.8523 32.2812 26.9256C32.2813 27.348 32.1477 27.7486 31.8944 28.0862Z" fill="#0F270C"/>
</g>
<defs>
<clipPath id="clip0_6426_77869">
<rect width="32" height="32" fill="white" transform="translate(14.3333 14)"/>
</clipPath>
</defs>
</svg>
